<?xml version="1.0" encoding="UTF-8" standalone="no"?>
<svg
   xmlns:dc="http://purl.org/dc/elements/1.1/"
   xmlns:cc="http://creativecommons.org/ns#"
   xmlns:rdf="http://www.w3.org/1999/02/22-rdf-syntax-ns#"
   xmlns:svg="http://www.w3.org/2000/svg"
   xmlns="http://www.w3.org/2000/svg"
   xmlns:sodipodi="http://sodipodi.sourceforge.net/DTD/sodipodi-0.dtd"
   xmlns:inkscape="http://www.inkscape.org/namespaces/inkscape"
   viewBox="0 0 524.89838 253.19489"
   height="253.19489"
   width="524.89838"
   xml:space="preserve"
   version="1.1"
   id="svg2"
   inkscape:version="0.91 r13725"
   sodipodi:docname="graph.svg"><sodipodi:namedview
     pagecolor="#ffffff"
     bordercolor="#666666"
     borderopacity="1"
     objecttolerance="10"
     gridtolerance="10"
     guidetolerance="10"
     inkscape:pageopacity="0"
     inkscape:pageshadow="2"
     inkscape:window-width="1586"
     inkscape:window-height="957"
     id="namedview55"
     showgrid="false"
     inkscape:zoom="1.5684543"
     inkscape:cx="296.78152"
     inkscape:cy="146.34282"
     inkscape:window-x="39"
     inkscape:window-y="6"
     inkscape:window-maximized="0"
     inkscape:current-layer="g16" /><metadata
     id="metadata8"><rdf:RDF><cc:Work
         rdf:about=""><dc:format>image/svg+xml</dc:format><dc:type
           rdf:resource="http://purl.org/dc/dcmitype/StillImage" /><dc:title></dc:title></cc:Work></rdf:RDF></metadata><defs
     id="defs6"><clipPath
       id="clipPath18"
       clipPathUnits="userSpaceOnUse"><path
         id="path20"
         d="m 0,0 1024,0 0,768 L 0,768 0,0 Z" /></clipPath></defs><g
     transform="matrix(1.25,0,0,-1.25,-679.10375,368.17962)"
     id="g10"><g
       id="g12" /><g
       id="g14"><g
         clip-path="url(#clipPath18)"
         id="g16"><path
           inkscape:connector-curvature="0"
           d="m 816.7444,193.0459 c -36.44006,0 -72.88013,0 -109.3202,0"
           style="fill:none;stroke:#ffffff;stroke-width:1;stroke-linecap:butt;stroke-linejoin:miter;stroke-miterlimit:4;stroke-dasharray:none;stroke-opacity:1"
           id="path42" /><path
           inkscape:connector-curvature="0"
           d="m 699.54576,194.81701 -34.1495,47.47889"
           style="fill:none;stroke:#ffffff;stroke-width:1;stroke-linecap:butt;stroke-linejoin:miter;stroke-miterlimit:4;stroke-dasharray:none;stroke-opacity:1"
           id="path46" /><path
           inkscape:connector-curvature="0"
           d="M 699.60702,194.132 665.335,146.08405"
           style="fill:none;stroke:#ffffff;stroke-width:1;stroke-linecap:butt;stroke-linejoin:miter;stroke-miterlimit:4;stroke-dasharray:none;stroke-opacity:1"
           id="path50" /><path
           inkscape:connector-curvature="0"
           d="m 697.99371,193.0459 c -26.85213,0 -53.70427,0 -80.55641,0"
           style="fill:none;stroke:#ffffff;stroke-width:1;stroke-linecap:butt;stroke-linejoin:miter;stroke-miterlimit:4;stroke-dasharray:none;stroke-opacity:1"
           id="path54" /><path
           inkscape:connector-curvature="0"
           d="m 821.61403,193.65893 30.7179,46.59507"
           style="fill:none;stroke:#ffffff;stroke-width:1;stroke-linecap:butt;stroke-linejoin:miter;stroke-miterlimit:4;stroke-dasharray:none;stroke-opacity:1"
           id="path58" /><path
           inkscape:connector-curvature="0"
           d="m 821.55297,192.0939 30.84002,-47.17176"
           style="fill:none;stroke:#ffffff;stroke-width:1;stroke-linecap:butt;stroke-linejoin:miter;stroke-miterlimit:4;stroke-dasharray:none;stroke-opacity:1"
           id="path62" /><path
           inkscape:connector-curvature="0"
           d="m 821.375,193.0459 c 22.8309,0 45.66179,0 68.49269,0"
           style="fill:none;stroke:#ffffff;stroke-width:1;stroke-linecap:butt;stroke-linejoin:miter;stroke-miterlimit:4;stroke-dasharray:none;stroke-opacity:1"
           id="path66" /><text
           transform="scale(1,-1)"
           style="font-variant:normal;font-weight:normal;font-size:28px;font-family:STIXGeneral;-inkscape-font-specification:STIXGeneral-Regular;writing-mode:lr-tb;fill:#ffffff;fill-opacity:1;fill-rule:nonzero;stroke:none"
           id="text72"
           x="752.70947"
           y="-196.32066"><tspan
             x="752.70947"
             y="-196.32066"
             id="tspan74"
             style="fill:#ffffff;fill-opacity:1">1</tspan></text>
<text
           transform="scale(1,-1)"
           style="font-variant:normal;font-weight:normal;font-size:28px;font-family:STIXGeneral;-inkscape-font-specification:STIXGeneral-Regular;writing-mode:lr-tb;fill:#ffffff;fill-opacity:1;fill-rule:nonzero;stroke:none"
           id="text80"
           x="686.29535"
           y="-153.79994"><tspan
             x="686.29535"
             y="-153.79994"
             id="tspan82"
             style="fill:#ffffff;fill-opacity:1">2</tspan></text>
<text
           transform="scale(1,-1)"
           style="font-variant:normal;font-weight:normal;font-size:28px;font-family:STIXGeneral;-inkscape-font-specification:STIXGeneral-Regular;writing-mode:lr-tb;fill:#ffffff;fill-opacity:1;fill-rule:nonzero;stroke:none"
           id="text88"
           x="643.79962"
           y="-196.34866"><tspan
             x="643.79962"
             y="-196.34866"
             id="tspan90"
             style="fill:#ffffff;fill-opacity:1">5</tspan></text>
<path
           id="path92"
           style="fill:none;fill-opacity:1;fill-rule:nonzero;stroke:none"
           d="m 648.1427,250.9363 20.0747,0 0,-32.5265 -20.0747,0 0,32.5265 z" /><text
           transform="scale(1,-1)"
           style="font-variant:normal;font-weight:normal;font-size:28px;font-family:STIXGeneral;-inkscape-font-specification:STIXGeneral-Regular;writing-mode:lr-tb;fill:#ffffff;fill-opacity:1;fill-rule:nonzero;stroke:none"
           id="text96"
           x="686.3233"
           y="-217.00781"><tspan
             x="686.3233"
             y="-217.00781"
             id="tspan98"
             style="fill:#ffffff;fill-opacity:1">8</tspan></text>
<text
           transform="scale(1,-1)"
           style="font-variant:normal;font-weight:normal;font-size:28px;font-family:STIXGeneral;-inkscape-font-specification:STIXGeneral-Regular;writing-mode:lr-tb;fill:#ffffff;fill-opacity:1;fill-rule:nonzero;stroke:none"
           id="text104"
           x="818.99841"
           y="-215.51984"><tspan
             x="818.99841"
             y="-215.51984"
             id="tspan106"
             style="fill:#ffffff;fill-opacity:1;stroke:none">7</tspan></text>
<text
           transform="scale(1,-1)"
           style="font-variant:normal;font-weight:normal;font-size:28px;font-family:STIXGeneral;-inkscape-font-specification:STIXGeneral-Regular;writing-mode:lr-tb;fill:#ffffff;fill-opacity:1;fill-rule:nonzero;stroke:none"
           id="text112"
           x="848.10663"
           y="-196.40466"><tspan
             x="848.10663"
             y="-196.40466"
             id="tspan114"
             style="fill:#ffffff;fill-opacity:1">6</tspan></text>
<text
           transform="scale(1,-1)"
           style="font-variant:normal;font-weight:normal;font-size:28px;font-family:STIXGeneral;-inkscape-font-specification:STIXGeneral-Regular;writing-mode:lr-tb;fill:#ffffff;fill-opacity:1;fill-rule:nonzero;stroke:none"
           id="text120"
           x="818.71838"
           y="-155.70796"><tspan
             x="818.71838"
             y="-155.70796"
             id="tspan122"
             style="fill:#ffffff;fill-opacity:1">9</tspan></text>
<path
           id="path30"
           style="fill:#dc3b26;fill-opacity:1;fill-rule:nonzero;stroke:#ffffff;stroke-width:2.4000001;stroke-miterlimit:4;stroke-dasharray:none;stroke-opacity:1"
           d="m 613.02415,198.49319 c 3.00848,3.00847 7.88615,3.00847 10.89462,0 3.00847,-3.00843 3.00847,-7.88611 0,-10.89458 -3.00847,-3.00847 -7.88614,-3.00847 -10.89462,0 -3.00843,3.00847 -3.00843,7.88615 0,10.89458 z"
           inkscape:connector-curvature="0" /><path
           inkscape:connector-curvature="0"
           d="m 694.62415,198.49319 c 3.00848,3.00847 7.88615,3.00847 10.89462,0 3.00847,-3.00843 3.00847,-7.88611 0,-10.89458 -3.00847,-3.00847 -7.88614,-3.00847 -10.89462,0 -3.00843,3.00847 -3.00843,7.88615 0,10.89458 z"
           style="fill:#dc3b26;fill-opacity:1;fill-rule:nonzero;stroke:#ffffff;stroke-width:2.4000001;stroke-miterlimit:4;stroke-dasharray:none;stroke-opacity:1"
           id="path4206" /><path
           id="path4208"
           style="fill:#dc3b26;fill-opacity:1;fill-rule:nonzero;stroke:#ffffff;stroke-width:2.4000001;stroke-miterlimit:4;stroke-dasharray:none;stroke-opacity:1"
           d="m 814.62415,198.49319 c 3.00848,3.00847 7.88615,3.00847 10.89462,0 3.00847,-3.00843 3.00847,-7.88611 0,-10.89458 -3.00847,-3.00847 -7.88614,-3.00847 -10.89462,0 -3.00843,3.00847 -3.00843,7.88615 0,10.89458 z"
           inkscape:connector-curvature="0" /><path
           inkscape:connector-curvature="0"
           d="m 849.02415,150.43398 c 3.00848,3.00847 7.88615,3.00847 10.89462,0 3.00847,-3.00843 3.00847,-7.88611 0,-10.89458 -3.00847,-3.00847 -7.88614,-3.00847 -10.89462,0 -3.00843,3.00847 -3.00843,7.88615 0,10.89458 z"
           style="fill:#dc3b26;fill-opacity:1;fill-rule:nonzero;stroke:#ffffff;stroke-width:2.4000001;stroke-miterlimit:4;stroke-dasharray:none;stroke-opacity:1"
           id="path4210" /><path
           id="path4212"
           style="fill:#dc3b26;fill-opacity:1;fill-rule:nonzero;stroke:#ffffff;stroke-width:2.4000001;stroke-miterlimit:4;stroke-dasharray:none;stroke-opacity:1"
           d="m 885.02415,198.49319 c 3.00848,3.00847 7.88615,3.00847 10.89462,0 3.00847,-3.00843 3.00847,-7.88611 0,-10.89458 -3.00847,-3.00847 -7.88614,-3.00847 -10.89462,0 -3.00843,3.00847 -3.00843,7.88615 0,10.89458 z"
           inkscape:connector-curvature="0" /><path
           inkscape:connector-curvature="0"
           d="m 849.02415,248.89319 c 3.00848,3.00847 7.88615,3.00847 10.89462,0 3.00847,-3.00843 3.00847,-7.88611 0,-10.89458 -3.00847,-3.00847 -7.88614,-3.00847 -10.89462,0 -3.00843,3.00847 -3.00843,7.88615 0,10.89458 z"
           style="fill:#dc3b26;fill-opacity:1;fill-rule:nonzero;stroke:#ffffff;stroke-width:2.4000001;stroke-miterlimit:4;stroke-dasharray:none;stroke-opacity:1"
           id="path4214" /><path
           id="path4216"
           style="fill:#dc3b26;fill-opacity:1;fill-rule:nonzero;stroke:#ffffff;stroke-width:2.4000001;stroke-miterlimit:4;stroke-dasharray:none;stroke-opacity:1"
           d="m 656.25906,248.89319 c 3.00848,3.00847 7.88615,3.00847 10.89462,0 3.00847,-3.00843 3.00847,-7.88611 0,-10.89458 -3.00847,-3.00847 -7.88613,-3.00847 -10.89462,0 -3.00843,3.00847 -3.00843,7.88615 0,10.89458 z"
           inkscape:connector-curvature="0" /><path
           inkscape:connector-curvature="0"
           d="m 656.25907,150.43398 c 3.00848,3.00847 7.88615,3.00847 10.89462,0 3.00847,-3.00843 3.00847,-7.88611 0,-10.89458 -3.00847,-3.00847 -7.88614,-3.00847 -10.89462,0 -3.00843,3.00847 -3.00843,7.88615 0,10.89458 z"
           style="fill:#dc3b26;fill-opacity:1;fill-rule:nonzero;stroke:#ffffff;stroke-width:2.4000001;stroke-miterlimit:4;stroke-dasharray:none;stroke-opacity:1"
           id="path4218" /></g></g></g></svg>